<svg xmlns="http://www.w3.org/2000/svg">
<symbol id="mastodon-svg-logo-full" viewBox="0 0 713.35878 175.8678">
<path d="M160.55476 105.43125c-2.4125 12.40625-21.5975 25.9825-43.63375 28.61375-11.49125 1.3725-22.80375 2.63125-34.8675 2.07875-19.73-.90375-35.2975-4.71-35.2975-4.71 0 1.92125.11875 3.75.355 5.46 2.565 19.47 19.3075 20.6375 35.16625 21.18125 16.00625.5475 30.2575-3.9475 30.2575-3.9475l.65875 14.4725s-11.19625 6.01125-31.14 7.11625c-10.99875.605-24.65375-.27625-40.56-4.485C6.99851 162.08 1.06601 125.31.15851 88-.11899 76.9225.05226 66.47625.05226 57.74125c0-38.1525 24.99625-49.335 24.99625-49.335C37.65226 2.6175 59.27976.18375 81.76351 0h.5525c22.48375.18375 44.125 2.6175 56.72875 8.40625 0 0 24.99625 11.1825 24.99625 49.335 0 0 .3125 28.1475-3.48625 47.69" fill="#3088d4"/>
<path d="M 54.531117,51.461314 A 11.385617,11.385617 0 0 1 43.293539,62.845969 11.385617,11.385617 0 0 1 31.763732,51.757368 11.385617,11.385617 0 0 1 42.701481,40.084358 11.385617,11.385617 0 0 1 54.51572,50.869406 m 591.86639,34.21944 c -18.59507,-3.898987 -11.45784,-34.543351 -8.80612,-47.541985 17.45624,2.980895 -7.80503,45.723814 19.5758,40.110904 4.181,-8.614101 15.48465,-20.707581 14.29508,-2.775098 -2.46188,11.255506 -16.19088,10.68726 -25.06476,10.206179 z m 29.27728,-17.727524 c -8.39286,-5.59522 -12.55293,-36.08703 0.33092,-17.521716 3.77127,5.455178 11.88806,15.71367 -0.33092,17.521716 z m -50.22798,4.297585 c -20.96337,-2.681159 11.04948,-45.108569 5.14346,-15.700032 -1.66191,5.225205 -4.7999,10.115707 -5.14346,15.700032 z m 31.15747,-28.202879 c -14.45238,-3.860139 -17.43795,-29.361907 -0.95649,-12.789886 5.99233,2.809514 8.04148,9.324099 0.95649,12.789886 z M 552.64115,69.51012 c 0,-11.460212 0,-22.920436 0,-34.380649 8.23702,0 16.47406,0 24.71109,0 -5.055,-13.668097 11.9097,-16.689056 9.19145,-1.666891 12.03073,2.584627 30.85705,-2.041899 24.3834,17.75115 0.77767,10.702791 1.81552,26.297198 -13.59353,14.202903 -21.06695,-9.544981 -3.22014,34.218061 -20.71971,18.159644 8.22599,-16.972158 -9.88545,-23.392931 -20.1444,-13.438939 z m 49.69078,-26.591286 c -16.65386,-9.40642 -25.33034,18.836672 -5.72469,15.185981 10.31812,2.269611 4.06233,-9.876056 5.72469,-15.185981 z m -41.09562,0 c -9.26558,20.694196 25.62975,20.396331 15.32681,0.434324 -4.90171,-1.829283 -10.28306,0.495878 -15.32681,-0.434324 z m -18.53335,27.665674 c -5.5984,-1.205624 -38.66887,4.890559 -17.25703,4.679757 10.33941,-3.596415 23.94516,13.976133 6.25418,6.943628 -9.88341,-6.69267 -15.71842,2.046514 -19.9126,4.684705 0.10826,-18.119258 -27.66955,7.866828 -24.24342,-7.387205 10.71663,-1.553529 24.38182,-9.610036 4.3165,-7.309292 -7.59587,-2.717585 -16.20605,-7.73317 -1.90444,-13.111204 13.39024,-7.899327 -22.81699,-6.779066 -0.38867,-11.906694 22.22759,-0.144931 4.06786,-2.834987 -3.17659,-7.106927 6.39893,-2.809089 30.68912,-3.368255 10.31226,-6.404402 -16.63213,5.706676 -13.05461,-11.858881 1.16285,-4.766475 11.93805,-4.479448 16.13206,-5.830807 26.97217,-0.580174 11.02884,-5.38669 25.42252,7.142354 7.15891,5.734847 -8.91465,-3.287496 -25.94034,4.286025 -7.56291,4.26822 12.31691,-5.789008 20.95589,8.728313 3.90369,5.447453 -10.6979,-4.102224 -24.55948,5.926616 -5.76025,3.982868 9.53003,-3.405346 34.8671,4.742827 11.98347,6.072306 -16.84126,1.19605 22.89859,8.874645 8.14188,16.758589 z M 502.68174,57.691763 c 10.10877,4.08691 26.32433,-5.574452 7.12712,-4.028983 -3.00666,-1.083961 -5.86309,1.668028 -7.12712,4.028983 z m 22.8309,4.566188 c -24.27834,1.268326 18.57788,9.55413 3.81952,0.699575 -1.37748,-1.764515 -7.28111,-6.830369 -3.81952,-0.699575 z m -24.7111,0.805797 c -26.06021,5.696264 28.61199,2.177348 0,0 z m -71.98447,7.52076 c -1.92424,-13.722167 -0.5373,-37.249433 6.26291,-44.467943 19.18703,-9.822894 23.09855,26.90071 3.63654,22.181784 -5.74322,9.089798 20.59266,-0.66021 12.04251,15.112764 6.55408,19.092383 -26.47151,14.642909 -16.98148,-3.504474 -2.51313,2.042037 -2.58441,7.678262 -4.96048,10.677869 z m -13.96713,16.115931 c -3.94692,-12.58766 11.58131,-28.959485 -3.35863,-38.663954 24.96928,-14.901123 1.62662,36.159158 29.40997,32.003462 6.51974,-1.165124 44.78283,-3.741347 28.89614,5.854695 -16.10635,-0.400378 -35.59257,2.756926 -48.40925,-6.646441 -2.68939,2.017643 -3.84121,5.41291 -6.53823,7.452238 z M 452.18517,53.66278 c -0.99603,-10.890967 20.842,-3.552998 16.38453,-17.458921 10.17607,0.736803 -1.49046,13.582711 7.59325,14.790103 -14.16081,5.102968 -4.38424,7.719669 -1.79155,13.200562 -7.78263,0.484157 -6.73648,20.953592 -14.45174,8.893529 3.42159,-5.874005 -15.11006,-12.65725 -0.47254,-12.710298 5.42501,-5.839462 -2.98893,-8.36755 -7.26195,-6.714975 z m 0.8058,-17.996115 c 3.90268,-9.866792 13.46108,-16.72609 22.2937,-3.434161 -3.02994,8.080351 -15.72221,1.117345 -22.2937,3.434161 z m -31.42607,4.028983 c -15.47974,-11.719195 5.03385,-20.972683 5.71486,-3.548269 l -2.42772,1.672378 z m 15.57874,-2.148787 c 4.81175,15.106449 11.95261,-13.839088 -0.14577,-3.843057 z m 20.14491,9.400956 c -13.97892,-17.169506 17.25037,-6.963006 0,0 z m -17.72752,12.086948 c -4.53496,23.705868 17.10965,-1.096727 0,0 z m -35.99225,27.934276 c -14.78639,-13.541372 -37.5455,1.243037 -48.72536,-3.861229 4.13148,-8.103861 29.34021,-7.853546 11.62253,-20.505125 0.0779,-23.537931 -13.03593,30.361746 -22.33994,16.016505 3.80445,-13.336631 28.88448,-41.872767 1.06999,-40.578921 -3.65198,-13.409665 19.76656,1.096578 20.28809,-15.186555 7.06467,3.376222 7.80447,12.963816 19.62434,8.783966 7.19198,1.699505 20.28396,-3.775131 22.90583,3.481457 -5.68619,8.683416 -20.64908,2.125771 -30.3752,4.039315 -14.26534,-4.30018 -11.35321,14.557168 2.99094,7.934903 15.74946,-5.239187 28.91024,6.12013 12.88508,18.49383 -12.99296,19.633538 25.92565,5.369781 10.0537,21.381854 z M 392.01903,54.468577 c -10.43756,-1.567224 -28.46549,-1.209608 -14.28217,11.772208 7.19753,3.76674 11.34506,-7.365588 14.28217,-11.772208 z M 321.37754,37.278258 c 12.61905,7.299477 -8.87994,25.209931 4.24854,34.593081 -7.57657,8.389087 -9.21182,-15.43338 -13.60616,1.716507 -11.80899,5.931667 -13.89438,-18.338028 -19.84958,0.339341 -7.94822,-2.817367 -8.63893,24.001413 -14.57441,6.319647 0,-17.993704 0,-35.98742 0,-53.981125 19.42864,0 38.8573,0 58.28594,0 -3.19382,19.297331 6.85586,44.736213 -5.98081,59.973842 -11.06667,5.569022 -21.72414,-10.868065 -4.54491,-7.076667 2.64113,-12.943692 6.89842,-38.160418 -2.47975,-45.645006 -12.4075,0 -24.81501,0 -37.22251,0 0,12.803215 0,25.606417 0,38.409632 15.75294,-4.828052 -6.29841,-45.730266 10.72921,-26.868177 4.38428,6.256245 9.2367,-18.054857 16.48932,-1.056962 6.45577,9.699475 6.24914,-2.831371 8.50512,-6.724113 z m -19.87632,19.607709 c 7.48817,27.563894 13.85619,-22.69765 2.47703,-5.539888 l -1.3105,2.736699 z m -68.76129,27.128491 c -1.93256,-16.78614 7.8163,-36.15437 0.29375,-51.529216 -2.38024,18.034263 2.09401,38.128287 -8.35172,54.483799 -2.52077,-18.920692 4.57413,-38.900791 3.33816,-57.579939 14.45279,-12.343681 29.29383,0.226874 19.19097,16.802625 -1.70134,8.47336 11.47833,35.845199 2.7117,34.893977 -9.90123,-10.809427 -3.24063,-46.162191 -9.96058,-44.501487 -5.0839,18.983728 7.54114,32.798122 4.12304,49.03164 -2.75339,-3.912647 -7.77936,-7.037624 -11.34532,-1.601399 z m 17.72752,-28.471482 c -0.96643,-10.022147 19.49717,-5.511165 13.96714,-18.53332 7.44988,2.437352 1.52699,14.030052 4.89168,17.246167 -16.5939,5.460999 10.34017,11.402504 -5.55368,16.990526 5.20844,8.385424 -7.75105,25.050454 -5.95763,7.340207 -4.27672,-10.690497 -5.38443,-13.128309 -1.34578,-22.470099 -1.81214,-1.461495 -3.95644,-0.491975 -6.00173,-0.573481 z m -44.85601,0 c -0.78896,-9.977824 19.50224,-5.324194 14.23574,-18.264718 8.45362,4.91353 4.68874,17.747074 -1.05696,23.186812 13.79472,6.146143 -7.94834,14.442359 -6.1721,24.173403 -12.01351,2.413165 5.85645,-19.034812 -5.89757,-18.180675 5.8346,-4.066912 10.99296,-13.868935 -1.10911,-10.914822 z m 0.8058,-19.339117 c 3.14439,-11.87998 15.40105,-17.118215 17.92798,-0.745654 -5.56337,2.705209 -12.08227,-0.539869 -17.92798,0.745654 z m 44.85601,-0.268591 c 3.51782,-12.903892 13.78818,-16.203854 18.22128,-1.177499 -5.12833,3.848545 -12.45804,-0.49124 -18.22128,1.177499 z m 3.49178,12.624142 c -11.96896,-18.704518 14.52147,-7.996744 0,0 z m -44.05021,0 c -11.69946,-20.263465 15.27648,-3.478737 0,0 z m 30.35167,27.397083 c 1.76712,-18.892154 -9.81593,4.172663 -1.06769,0.376833 z m -67.6869,-18.533321 c -1.37627,11.668673 39.36008,-1.028239 22.44703,11.818345 -8.8813,-2.020202 -23.33743,1.302008 -7.20405,5.774878 17.62465,-0.839903 9.32428,17.500053 -2.89411,5.430428 -11.63318,-11.375952 -12.37898,0.536436 -15.15268,7.415697 -11.02861,-1.163642 0.23301,-22.757447 -14.49154,-8.441411 -5.51138,6.335742 -27.74175,6.014229 -11.28276,-2.132153 14.23549,-1.875742 14.43048,-13.122603 0.008,-7.024824 -17.42172,-6.04573 5.11017,-9.5352 12.90505,-7.73759 16.69235,0.960693 -0.68386,-9.581578 -9.58326,-5.10337 0.68082,-12.380967 1.8518,-22.158848 -10.56604,-24.493148 3.81488,-4.916767 16.93253,-14.968199 22.09442,-4.172548 11.97963,5.406585 23.51291,-7.899614 30.91023,-3.239935 5.40179,3.279643 19.49596,8.992909 3.26109,9.414927 -11.90098,10.527519 11.2261,26.417219 -20.45141,22.490704 z M 155.92066,46.14202 c -0.45024,13.485616 43.32092,0.777913 16.69289,0 -5.56429,0 -11.12859,0 -16.69289,0 z m 0,-10.743958 c -0.45025,13.485639 43.32093,0.777924 16.69289,0 -5.56429,0 -11.12859,0 -16.69289,0 z M 72.117824,87.237644 c 0,-14.77294 0,-29.545869 0,-44.31881 9.938158,0 19.876315,0 29.814476,0 -3.067084,13.833692 8.93123,45.017019 -12.959268,42.973914 C 77.324684,78.860106 106.07254,76.882907 89.794005,72.252949 69.26564,67.021407 88.538881,90.787417 72.117824,87.237644 Z M 68.088841,37.815452 c -3.638764,-14.473434 22.624739,0.988405 14.301516,-13.648088 9.261046,-3.45844 16.271882,15.881102 27.786243,2.415565 10.73428,-7.722195 7.766,1.198414 9.37445,5.120865 21.23857,-4.160517 9.79995,10.655943 -4.04742,6.111658 -15.804931,0 -31.60986,0 -47.414789,0 z M 110.52746,86.431848 C 122.4338,75.865321 123.6662,62.046483 121.4428,45.850435 c 12.51898,-13.464435 5.27998,22.026453 7.53056,29.784717 0.70318,11.196695 -10.50221,10.926451 -18.4459,10.796696 z m -2.41739,-12.355551 c 0,-9.938162 0,-19.876311 0,-29.814473 10.01881,-6.482005 10.5973,36.655151 0,29.814473 z M 79.369996,61.183552 c -1.933591,14.971907 28.401074,-1.306416 7.509239,-0.107221 l -2.813543,0.301228 z m 0,-11.818346 c -1.933591,14.971908 28.401074,-1.306416 7.509239,-0.10722 l -2.813543,0.301228 z"/>
<path d="m 137.45504,113.89317 21.27055,57.19149 120.20561,-44.70664 -21.27055,-57.191486 z m 20.16342,4.09404 4.24211,0.25608 c -2.29504,5.56918 -3.35679,11.98935 -0.61775,19.35397 2.73903,7.36462 7.738,11.53071 13.11446,14.24672 l -3.04382,2.96585 c -5.65478,-2.52519 -11.35147,-7.39229 -14.40436,-15.60078 -3.05289,-8.20849 -1.92106,-15.61524 0.70936,-21.22184 z m 87.45433,-32.52585 c 5.65478,2.52518 11.35147,7.39228 14.40436,15.60077 3.05288,8.20849 1.92106,15.61525 -0.70936,21.22185 l -4.24333,-0.25563 c 2.29503,-5.56917 3.35678,-11.98935 0.61774,-19.35397 -2.73904,-7.36463 -7.73801,-11.5307 -13.11445,-14.24672 z m -62.04847,23.4701 4.89256,-0.81521 c 0.13538,1.3032 0.20308,2.54334 0.24748,3.83672 l 13.23305,-4.92161 1.62631,4.37277 -14.88184,5.53483 c -0.27258,3.3761 -0.88992,6.53127 -1.85009,9.11519 -1.06229,-0.39085 -3.07278,-0.86559 -4.46602,-1.08969 l 8.14565,21.90171 -4.4875,1.66898 -13.01007,-34.981 4.4875,-1.66898 4.63611,12.46541 c 1.79799,-4.20542 2.12087,-9.9137 1.42686,-15.41912 z m 47.18196,-17.06853 4.64127,-1.72618 2.52503,6.78922 3.91268,-1.4552 1.6835,4.52655 -3.91267,1.4552 6.76216,18.18187 c 1.02715,2.76173 0.89478,4.16395 -0.56025,5.5347 -1.41668,1.35648 -4.05899,2.47017 -7.909,3.85839 -0.66256,-1.19447 -2.14714,-2.95571 -3.32261,-4.00307 2.72782,-0.88354 5.56506,-1.93916 6.37057,-2.23874 0.84386,-0.31385 1.051,-0.6965 0.75142,-1.502 l -6.73357,-18.10498 -11.3536,4.22261 -1.68351,-4.52655 11.35361,-4.22261 z m -24.95386,12.38156 13.15617,-4.89302 9.58677,25.77657 -8.86027,3.2953 1.1411,3.06813 -4.2959,1.59772 z m -37.9641,15.56017 4.219,-1.56912 10.11465,27.19592 -4.21899,1.56912 z m 43.77193,-13.09266 2.48237,6.6745 4.60222,-1.71165 -2.48237,-6.6745 z m -19.3281,9.1973 c 2.99159,0.76489 6.63328,1.987 8.69541,2.8356 l -1.81795,4.38677 c -1.99968,-0.91547 -5.84585,-2.45309 -8.81778,-3.39995 z m 36.39971,-7.55566 c 2.86386,1.94764 6.7991,4.5454 8.85396,6.31362 l -3.15851,3.83787 c -1.97813,-1.79675 -5.83134,-4.64354 -8.7139,-6.75885 z m -13.10545,9.02242 2.58222,6.94298 4.60222,-1.71164 -2.58222,-6.94299 z m -28.83626,10.9859 19.59999,-7.28959 6.59105,17.72177 -4.60222,1.71165 -0.62774,-1.68785 -10.62501,3.95164 0.68493,1.84161 -4.37276,1.62631 z m 5.99908,2.74647 2.76787,7.44214 3.37447,-1.25502 -2.76787,-7.44215 z m 7.51781,-2.79601 2.76787,7.44214 3.1072,-1.15562 -2.76787,-7.44215 z" fill="#ca4100"/>
</symbol></svg>
